<svg width="258" height="258" xmlns="http://www.w3.org/2000/svg"><g fill="none" fill-rule="evenodd"><rect fill="#0F0E13" transform="rotate(-90 129 128.858)" x="1.194" y="1.002" width="255.611" height="255.713" rx="83.611"/><path d="M1.143 127.665h255.713v45.388c0 46.177-37.433 83.61-83.61 83.61H84.754c-46.177 0-83.61-37.433-83.61-83.61v-45.388Z" fill="#D96151"/><path d="M158.873 127.665h62.136l.002 114.02c-13.54 9.442-30.007 14.979-47.765 14.979h-14.373v-129Zm-119.492 0h62.135v128.999H84.754c-16.726 0-32.306-4.912-45.374-13.371V127.665Z" fill="#F7DFDC"/><path fill-opacity=".254" fill="#FFF" d="M1.143 139.608v-11.944h255.713v11.944z"/><path d="M132.368 41.878c9.236 0 16.722 7.487 16.722 16.722v23.912c0 9.235-7.486 16.722-16.722 16.722-9.235 0-16.722-7.487-16.722-16.722V58.6c0-9.235 7.487-16.722 16.722-16.722Zm69.278 0c9.235 0 16.722 7.487 16.722 16.722v23.912c0 9.235-7.487 16.722-16.722 16.722-9.236 0-16.722-7.487-16.722-16.722V58.6c0-9.235 7.486-16.722 16.722-16.722Z" fill="#FFF"/></g></svg>