<svg width="232" height="86" xmlns="http://www.w3.org/2000/svg"><path d="M.113 36.04C1.025 45.847 8.29 52 19.683 52c11.618 0 19.574-6.45 19.574-16.063 0-8.995-4.864-12.642-15.149-14.73l-.507-.103c-.346-.07-.693-.134-2.618-.495-7.81-1.465-10.245-2.73-10.245-6.279 0-3.457 3.36-5.908 8.67-5.908 5.506 0 8.64 2.396 9.23 6.522l.137.953h9.118l-.102-1.205C37.033 5.818 29.558 0 19.865 0 9.18 0 1.571 5.741 1.571 14.33c0 8.627 4.66 11.95 15.097 14.125l.342.072 1.887.38c8.465 1.698 11.101 3.15 11.101 7.395 0 4.341-3.625 7.185-9.95 7.185-6.4 0-9.952-2.62-10.692-7.71l-.139-.95H0l.113 1.213ZM149.098 50.6h8.112v-8.806h-8.112c-8.373 0-14.573-7.545-14.573-16.482 0-8.826 6.758-16.506 15.83-16.506 10.452 0 16.609 5.383 16.609 14.331v27.647h8.832V23.137C175.796 9.05 165.446 0 150.355 0c-14.225 0-24.663 11.86-24.663 25.312 0 13.457 9.725 25.287 23.406 25.287ZM229 19.88C229 8.368 221.437 0 210.113 0c-5.994 0-11.053 2.435-14.005 6.206v-4.82h-9.464v49.4h9.464V21.43c0-7.151 5.294-12.466 12.264-12.466 6.348 0 11.503 4.69 11.503 11.372v30.45H229V19.882ZM82.987 14.182l-11.62 36.606h-10.87l-15.386-49.4h10.126l10.914 37.256L78.104 1.387h9.773l11.866 37.256 11.001-37.256h10.126l-15.48 49.4H94.52L82.987 14.18Zm-60.003 59.91c0 2.35-.439 4.362-1.316 6.035s-2.07 2.953-3.58 3.84c-1.509.888-3.218 1.332-5.129 1.332-1.91 0-3.62-.445-5.13-1.337-1.509-.891-2.702-2.173-3.58-3.846-.876-1.672-1.315-3.68-1.315-6.024 0-2.35.439-4.363 1.316-6.035.877-1.673 2.07-2.953 3.58-3.84 1.509-.889 3.219-1.332 5.13-1.332 1.91 0 3.62.443 5.129 1.331 1.509.888 2.702 2.168 3.58 3.84.876 1.673 1.315 3.685 1.315 6.036Zm-3.974 0c0-1.655-.257-3.052-.772-4.192-.515-1.14-1.227-2.003-2.136-2.589-.91-.586-1.957-.879-3.143-.879-1.186 0-2.234.293-3.143.879-.909.586-1.62 1.449-2.136 2.589-.515 1.14-.772 2.537-.772 4.192 0 1.655.257 3.052.772 4.192.515 1.14 1.227 2.003 2.136 2.589.91.586 1.957.879 3.143.879 1.186 0 2.234-.293 3.143-.88.909-.585 1.62-1.448 2.136-2.588.515-1.14.772-2.537.772-4.192ZM28.38 85V63.182h8.18c1.677 0 3.085.312 4.225.937 1.14.625 2.003 1.483 2.589 2.573.586 1.09.879 2.328.879 3.713 0 1.399-.295 2.642-.885 3.729-.59 1.086-1.46 1.94-2.61 2.562-1.15.621-2.567.932-4.25.932h-5.423v-3.25h4.89c.98 0 1.783-.17 2.408-.51.625-.342 1.088-.81 1.39-1.407.302-.597.453-1.282.453-2.056s-.151-1.456-.453-2.046c-.302-.59-.767-1.049-1.396-1.38-.628-.33-1.436-.495-2.423-.495h-3.622V85h-3.953Zm20.948 0V63.182h14.19v3.313H53.282v5.923h9.502v3.314h-9.502v5.955h10.323V85H49.328Zm37.803-21.818V85h-3.516l-10.28-14.862h-.181V85H69.2V63.182h3.537l10.27 14.872h.192V63.182h3.931Zm26.888 5.998c-.1-.93-.517-1.655-1.252-2.174-.735-.518-1.689-.777-2.86-.777-.824 0-1.531.124-2.12.373-.59.248-1.041.585-1.354 1.012a2.46 2.46 0 0 0-.479 1.46c0 .454.105.848.314 1.182.21.333.496.616.858.847.362.23.763.424 1.204.58.44.156.884.288 1.331.394l2.046.512c.824.192 1.617.45 2.38.777a8.507 8.507 0 0 1 2.057 1.236 5.514 5.514 0 0 1 1.444 1.8c.355.704.532 1.528.532 2.472 0 1.279-.326 2.403-.98 3.372-.653.97-1.596 1.726-2.828 2.27-1.233.543-2.722.814-4.47.814-1.697 0-3.169-.263-4.415-.788-1.247-.526-2.22-1.293-2.92-2.301-.699-1.009-1.077-2.237-1.134-3.686h3.889c.056.76.29 1.392.703 1.896.412.504.95.88 1.614 1.13.664.248 1.408.372 2.232.372.859 0 1.614-.13 2.263-.389.65-.259 1.16-.621 1.53-1.086.369-.466.557-1.01.564-1.636-.007-.568-.174-1.038-.5-1.411-.328-.373-.784-.686-1.37-.938a13.88 13.88 0 0 0-2.05-.676l-2.483-.64c-1.797-.461-3.215-1.162-4.256-2.103-1.04-.942-1.56-2.193-1.56-3.756 0-1.285.35-2.411 1.049-3.377.7-.966 1.653-1.717 2.86-2.253 1.208-.536 2.575-.804 4.102-.804 1.548 0 2.906.268 4.075.804 1.168.536 2.086 1.278 2.754 2.226.667.949 1.012 2.037 1.033 3.266h-3.803Zm28.758 4.91c0 2.352-.439 4.363-1.316 6.036-.877 1.673-2.07 2.953-3.58 3.84-1.509.888-3.219 1.332-5.13 1.332-1.91 0-3.62-.445-5.129-1.337-1.509-.891-2.702-2.173-3.58-3.846-.876-1.672-1.315-3.68-1.315-6.024 0-2.35.439-4.363 1.316-6.035.877-1.673 2.07-2.953 3.58-3.84 1.509-.889 3.218-1.332 5.129-1.332 1.91 0 3.62.443 5.13 1.331 1.509.888 2.702 2.168 3.58 3.84.876 1.673 1.315 3.685 1.315 6.036Zm-3.974 0c0-1.654-.257-3.051-.772-4.191-.515-1.14-1.227-2.003-2.136-2.589-.91-.586-1.957-.879-3.143-.879-1.186 0-2.234.293-3.143.879-.909.586-1.62 1.449-2.136 2.589-.515 1.14-.772 2.537-.772 4.192 0 1.655.257 3.052.772 4.192.515 1.14 1.227 2.003 2.136 2.589.91.586 1.957.879 3.143.879 1.186 0 2.234-.293 3.143-.88.909-.585 1.62-1.448 2.136-2.588.515-1.14.772-2.537.772-4.192Zm23.122-10.908h3.953v14.254c0 1.563-.368 2.937-1.103 4.123-.735 1.186-1.766 2.111-3.095 2.775-1.328.664-2.88.996-4.655.996-1.783 0-3.338-.332-4.666-.996-1.328-.664-2.358-1.589-3.09-2.775-.731-1.186-1.097-2.56-1.097-4.123V63.182h3.952v13.924c0 .909.201 1.719.602 2.429.402.71.968 1.266 1.7 1.667.731.401 1.597.602 2.599.602 1.001 0 1.87-.2 2.605-.602a4.22 4.22 0 0 0 1.699-1.667c.398-.71.596-1.52.596-2.43V63.183Zm49.74 7.361h-3.985a5.013 5.013 0 0 0-.628-1.742 4.698 4.698 0 0 0-2.69-2.098 6.23 6.23 0 0 0-1.87-.272c-1.186 0-2.237.297-3.153.89-.917.593-1.634 1.46-2.152 2.6-.519 1.139-.778 2.53-.778 4.17 0 1.669.261 3.073.783 4.213.522 1.14 1.24 2 2.152 2.578.913.58 1.958.869 3.137.869a6.28 6.28 0 0 0 1.838-.261 5.006 5.006 0 0 0 1.545-.773 4.68 4.68 0 0 0 1.161-1.257 4.806 4.806 0 0 0 .655-1.704l3.985.021a8.648 8.648 0 0 1-2.898 5.321 8.758 8.758 0 0 1-2.791 1.62c-1.066.387-2.248.58-3.548.58-1.917 0-3.63-.444-5.135-1.331-1.505-.888-2.692-2.17-3.558-3.846-.866-1.676-1.3-3.686-1.3-6.03 0-2.35.437-4.363 1.31-6.035.874-1.673 2.064-2.953 3.57-3.84 1.505-.889 3.21-1.332 5.113-1.332 1.215 0 2.344.17 3.388.51 1.044.342 1.974.84 2.791 1.498a8.151 8.151 0 0 1 2.019 2.407c.53.949.875 2.03 1.039 3.244ZM216.943 85V63.182h14.19v3.313h-10.238v5.923h9.503v3.314h-9.503v5.955h10.323V85h-14.275Zm-36.934-21.818c1.676 0 3.084.291 4.224.873 1.14.583 2.003 1.398 2.589 2.445.586 1.048.879 2.268.879 3.66 0 1.399-.297 2.612-.89 3.638-.593 1.026-1.465 1.818-2.615 2.376a6.937 6.937 0 0 1-.416.184L188.5 85h-4.41l-4.289-7.99h-4.022V85h-3.952V63.182h8.182Zm-.607 3.302h-3.623v7.245h3.644c.98 0 1.783-.137 2.408-.41.625-.274 1.088-.675 1.39-1.204.302-.53.453-1.181.453-1.955s-.153-1.437-.458-1.987c-.306-.55-.771-.97-1.396-1.257-.625-.288-1.431-.432-2.418-.432Z" fill="#FFF" fill-rule="evenodd"/></svg>