<svg xmlns="http://www.w3.org/2000/svg" xmlns:xlink="http://www.w3.org/1999/xlink" viewBox="0 0 380 107"><defs><filter id="c" width="101.9%" height="103.7%" x="-.9%" y="-.9%" filterUnits="objectBoundingBox"><feOffset dy="2" in="SourceAlpha" result="shadowOffsetOuter1"/><feComposite in="shadowOffsetOuter1" in2="SourceAlpha" operator="out" result="shadowOffsetOuter1"/><feColorMatrix in="shadowOffsetOuter1" values="0 0 0 0 0 0 0 0 0 0 0 0 0 0 0 0 0 0 0.0737432733 0"/></filter><filter id="e" width="102.8%" height="104.7%" x="-1.4%" y="-1.4%" filterUnits="objectBoundingBox"><feOffset dy="3" in="SourceAlpha" result="shadowOffsetInner1"/><feComposite in="shadowOffsetInner1" in2="SourceAlpha" k2="-1" k3="1" operator="arithmetic" result="shadowInnerInner1"/><feColorMatrix in="shadowInnerInner1" values="0 0 0 0 1 0 0 0 0 1 0 0 0 0 1 0 0 0 0.219771805 0"/></filter><path id="a" d="M42.3 0h22.4c14.7 0 20.04 1.53 25.42 4.4 5.38 2.88 9.6 7.1 12.47 12.48C105.47 22.26 107 27.6 107 42.3v22.4c0 14.7-1.53 20.04-4.4 25.42a29.99 29.99 0 0 1-12.48 12.47C84.74 105.47 79.4 107 64.7 107H42.3c-14.7 0-20.04-1.53-25.42-4.4A29.99 29.99 0 0 1 4.41 90.11C1.53 84.74 0 79.4 0 64.7V42.3c0-14.7 1.53-20.04 4.4-25.42 2.88-5.38 7.1-9.6 12.48-12.47C22.26 1.53 27.6 0 42.3 0Z"/><path id="d" d="m.29 74.16 89.86 28.41-.03.02C84.74 105.47 79.4 107 64.7 107H42.3c-14.7 0-20.04-1.53-25.42-4.4A29.99 29.99 0 0 1 4.41 90.11C2.25 86.09.86 82.09.29 74.16Zm1.17-49.63L107 57.9v6.8c0 7.95-.45 13.17-1.31 17.13L0 48.4V41.7c.02-8.05.52-13.23 1.46-17.17ZM90.12 4.41c5.38 2.87 9.6 7.1 12.47 12.47 2.18 4.08 3.6 8.14 4.14 16.28L16.48 4.63l.4-.22C22.18 1.57 27.45.04 41.7 0l23-.01c14.7 0 20.04 1.53 25.42 4.4Z"/></defs><g fill="none" fill-rule="evenodd"><g fill-rule="nonzero"><path fill="#383232" d="M150.03 47H162l-6.33-14.32c6.51-2.48 10.36-7.94 10.36-15.5 0-7.63-5.4-13.58-13.64-13.58h-20.21L124.55 47h10.66l2.24-12.9h7.37l5.21 12.9Zm-11.1-21.33 2.42-13.51h8.37c3.54 0 5.7 2.35 5.7 5.7 0 4.77-3.16 7.81-8.12 7.81h-8.37ZM198.45 34.04l.81-4.71c.19-.93.31-2.17.31-3.04 0-7.56-5.33-12.52-14.01-12.52-9.3 0-14.63 4.9-16.18 13.58l-.69 3.78c-.18.93-.3 2.3-.3 3.35 0 8.24 6.13 13.26 14.32 13.26 7.93 0 13.2-4.34 14.94-10.41h-9.18c-.56 1.55-2.23 3.1-4.96 3.1-3.4 0-5.33-1.86-5.33-4.96 0-.5.06-1.06.12-1.43h20.15Zm-19.03-6.45c.68-4.03 2.36-6.38 6.08-6.38 2.85 0 4.7 1.8 4.7 4.65 0 .43-.05 1.11-.12 1.49l-.12.62h-10.6l.06-.38ZM232.43 47l3.47-19.72c.13-.68.19-1.42.19-2.1 0-6.58-5.83-11.41-13.7-11.41-7.26 0-12.53 3.28-15.2 10.48h9.55a5.3 5.3 0 0 1 4.72-2.42c2.85 0 4.65 1.8 4.21 4.34l-.68 3.9c-1.8-1.42-4.77-2.79-9.55-2.79-7.56 0-12.83 3.54-12.83 10.85 0 6.2 5.14 9.61 11.03 9.61 4.16 0 7.88-1.6 9.3-3.53l-.5 2.79h9.99Zm-14.82-5.83c-3.16 0-5.27-1.42-5.27-3.66 0-2.91 2.73-3.96 5.46-3.96s5.89 1.17 5.89 3.6c0 2.78-3.47 4.02-6.08 4.02ZM272.6 27.04c.07-8.75-6.38-13.27-14.38-13.27-9.3 0-15 4.83-16.55 13.58l-.75 4.21a15.32 15.32 0 0 0-.24 2.73c0 8.18 6.82 13.45 14.94 13.45 8.55 0 14.7-5.39 15.87-13.26h-9.42c-.62 2.66-2.48 5.02-5.9 5.02-3.22 0-5.26-2.17-5.26-5.21 0-.43.06-1 .12-1.36l.8-4.6c.75-4.08 2.49-6.32 6.14-6.32 3.54 0 5.4 2.36 5.4 5.03h9.24ZM283.7 5.77l-1.55 8.74h-4.21l-1.43 8.06h4.22l-2.6 14.82c-.13.74-.2 1.43-.2 2.1 0 4.66 3.1 7.51 8.25 7.51h6.45l1.43-8.43h-3.41c-1.49 0-2.17-.62-1.92-2.11l2.41-13.89h6.27l1.42-8.06h-6.26l1.55-8.74H283.7Z"/><path fill="#DD6868" d="M179.3 72.6c-.07-11.1-8.37-16.87-17.86-16.87-11.84 0-18.1 5.58-20.34 18.23l-.99 5.58c-.25 1.3-.37 2.67-.37 3.9 0 10.24 7.56 17.43 18.41 17.43 10.54 0 18.05-7 19.29-16.87h-9.92c-.75 3.85-3.48 8.06-8.93 8.06-5.27 0-8.25-3.22-8.25-8.49 0-.93.06-1.86.25-2.85l1.12-6.39c1.24-6.94 4.03-9.8 9.23-9.8 5.58 0 8.37 3.85 8.44 8.07h9.92ZM191.45 100l3.35-18.97c.62-3.54 2.79-4.96 5.58-4.96 2.66 0 4.03 1.49 4.03 3.78 0 .31-.07.87-.13 1.18L200.93 100h10.42l3.6-20.4c.18-1.11.24-1.98.24-2.91 0-5.95-3.65-9.92-9.8-9.92-3.59 0-6.69 1.18-8.8 3.66l2.8-15.69h-10.42L181.03 100h10.42ZM229.2 100l5.71-32.49h-10.42L218.8 100h10.42Zm-3.78-40.36c0 3.16 2.6 4.96 5.46 4.96 3.66 0 6.08-2.54 6.08-5.83 0-2.85-2.17-4.96-5.34-4.96-3.72 0-6.2 2.36-6.2 5.83ZM269.88 80.04c.06-8.75-6.39-13.27-14.39-13.27-9.3 0-15 4.83-16.55 13.58l-.74 4.21a15.32 15.32 0 0 0-.25 2.73c0 8.18 6.82 13.45 14.94 13.45 8.56 0 14.7-5.39 15.87-13.26h-9.42c-.62 2.66-2.48 5.02-5.9 5.02-3.22 0-5.26-2.17-5.26-5.21 0-.43.06-1 .12-1.36l.8-4.6c.75-4.08 2.49-6.32 6.15-6.32 3.53 0 5.39 2.36 5.39 5.03h9.24ZM302.68 100l3.47-19.72c.12-.68.18-1.42.18-2.1 0-6.58-5.82-11.41-13.7-11.41-7.25 0-12.52 3.28-15.19 10.48H287a5.3 5.3 0 0 1 4.71-2.42c2.85 0 4.65 1.8 4.22 4.34l-.68 3.9c-1.8-1.42-4.78-2.79-9.55-2.79-7.57 0-12.84 3.54-12.84 10.85 0 6.2 5.15 9.61 11.04 9.61 4.15 0 7.87-1.6 9.3-3.53l-.5 2.79h9.99Zm-14.82-5.83c-3.16 0-5.27-1.42-5.27-3.66 0-2.91 2.73-3.96 5.45-3.96 2.73 0 5.9 1.17 5.9 3.6 0 2.78-3.48 4.02-6.08 4.02ZM320.22 100l3.35-18.97c.62-3.54 2.79-4.96 5.58-4.96 2.67 0 4.03 1.49 4.03 3.78 0 .31-.06.87-.12 1.18L329.7 100h10.41l3.6-20.4c.19-.99.25-2.1.25-2.91 0-5.95-3.66-9.92-9.8-9.92-3.9 0-7.25 1.42-9.36 4.4l.68-3.66h-9.98l-5.7 32.49h10.41ZM378.44 87.04l.8-4.71c.2-.93.32-2.17.32-3.04 0-7.56-5.34-12.52-14.02-12.52-9.3 0-14.63 4.9-16.18 13.58l-.68 3.78c-.19.93-.31 2.3-.31 3.35 0 8.24 6.14 13.26 14.32 13.26 7.94 0 13.2-4.34 14.94-10.41h-9.17c-.56 1.55-2.23 3.1-4.96 3.1-3.41 0-5.33-1.86-5.33-4.96 0-.5.06-1.06.12-1.43h20.15Zm-19.03-6.45c.68-4.03 2.35-6.38 6.07-6.38 2.85 0 4.71 1.8 4.71 4.65 0 .43-.06 1.11-.12 1.49l-.12.62h-10.6l.06-.38Z"/></g><mask id="b" fill="#fff"><use xlink:href="#a"/></mask><use xlink:href="#a" fill="#FBF299"/><g mask="url(#b)"><use xlink:href="#d" fill="#000" filter="url(#c)"/><use xlink:href="#d" fill="#DD6868"/><use xlink:href="#d" fill="#000" filter="url(#e)"/><path stroke="#DD6868" stroke-linejoin="square" stroke-width="2" d="m1.4 75.57 86.08 27.21C82.76 104.91 77.15 106 64.7 106H42.3c-14.42 0-19.67-1.47-24.95-4.29A29 29 0 0 1 5.3 89.65c-1.96-3.67-3.27-7.32-3.89-14.08Zm.8-49.75L106 58.63v6.07c0 7.15-.36 12.06-1.07 15.84L1 47.68V41.7c.02-7.24.43-12.13 1.2-15.88ZM65.3 1c13.97.04 19.14 1.5 24.35 4.29a29 29 0 0 1 12.06 12.06c2 3.73 3.31 7.44 3.91 14.41L19.14 4.42C24.04 2.15 29.54 1.04 41.7 1Z"/></g><path fill="#000" fill-opacity=".13" d="M49-3h4v116h-4z" mask="url(#b)"/><path fill="#383232" d="M53-16h57v140H53z" mask="url(#b)"/></g></svg>